<svg xmlns="http://www.w3.org/2000/svg" viewBox="0 0 32 32" width="32" height="32">
  <title>Software Daily</title>
  <rect width="32" height="32" rx="7.5" fill="#00ccff" />
  <!--
    "S/" drawn as paths rather than <text>: favicon renderers do not reliably
    load webfonts, and a fallback face would change the mark's proportions.
  -->
  <path
    d="M16.1 7.4c-3.3 0-5.6 1.7-5.6 4.3 0 2.2 1.5 3.4 4.3 4l1.8.4c1.5.3 2.1.8 2.1 1.7 0 1.1-1.1 1.8-2.8 1.8-1.8 0-3-.7-3.2-2h-3.1c.2 2.9 2.5 4.6 6.1 4.6 3.6 0 6-1.8 6-4.6 0-2.2-1.3-3.4-4.3-4l-1.9-.4c-1.4-.3-2-.8-2-1.6 0-1 1-1.7 2.5-1.7 1.5 0 2.6.7 2.7 1.9h3c-.1-2.7-2.2-4.4-5.6-4.4Z"
    fill="#071017"
  />
  <path d="M25.6 6.9h2.6l-6.1 18.2h-2.6z" fill="#071017" opacity=".85" />
</svg>
